<svg width="100" height="100" viewBox="0 0 100 100" xmlns="http://www.w3.org/2000/svg">
  <style>
    .cat-body { fill: #ffffff; stroke: #000000; stroke-width: 2; }
    .cat-face { fill: none; stroke: #000000; stroke-width: 2; }
    .cat-eye { fill: #000000; }
    .cat-pupil { fill: #ffffff; }
    .cat-ear { fill: #ffffff; stroke: #000000; stroke-width: 2; }
    .cat-whisker { stroke: #000000; stroke-width: 1.5; }
    .graduation-cap { fill: #000000; }
    .tassel { fill: #000000; }
  </style>
  
  <!-- Cat Ears -->
  <path class="cat-ear" d="M30,30 L20,10 L40,20 Z" />
  <path class="cat-ear" d="M70,30 L80,10 L60,20 Z" />
  
  <!-- Cat Head -->
  <circle class="cat-body" cx="50" cy="45" r="30" />
  
  <!-- Cat Eyes -->
  <ellipse class="cat-eye" cx="35" cy="40" rx="5" ry="6" />
  <ellipse class="cat-eye" cx="65" cy="40" rx="5" ry="6" />
  <circle class="cat-pupil" cx="35" cy="38" r="1.5" />
  <circle class="cat-pupil" cx="65" cy="38" r="1.5" />
  
  <!-- Cat Nose -->
  <path class="cat-face" d="M50,50 L45,55 L55,55 Z" />
  
  <!-- Cat Mouth -->
  <path class="cat-face" d="M45,60 Q50,65 55,60" />
  
  <!-- Cat Whiskers -->
  <line class="cat-whisker" x1="40" y1="55" x2="20" y2="50" />
  <line class="cat-whisker" x1="40" y1="58" x2="20" y2="58" />
  <line class="cat-whisker" x1="60" y1="55" x2="80" y2="50" />
  <line class="cat-whisker" x1="60" y1="58" x2="80" y2="58" />
  
  <!-- Graduation Cap -->
  <rect class="graduation-cap" x="35" y="15" width="30" height="5" />
  <rect class="graduation-cap" x="40" y="10" width="20" height="5" />
  <path class="tassel" d="M60,15 L65,30" />
  <circle class="tassel" cx="65" cy="32" r="2" />
</svg>